<svg xmlns="http://www.w3.org/2000/svg" viewBox="0 0 320 192"><rect width="320" height="192" rx="12" fill="#182630"/><ellipse cx="160" cy="168" rx="105" ry="12" fill="#0e1921"/><polygon points="250.33,37.44 222.83,49.81 250.81,37.65" fill="#e1e4d8"/><polygon points="223.32,50.16 250.81,37.79 250.81,37.65" fill="#b6b8af"/><polygon points="222.83,49.81 223.32,50.03 250.81,37.65" fill="#e1e4d8"/><polygon points="223.32,50.03 223.32,50.16 250.81,37.65" fill="#b6b8af"/><polygon points="263.40,43.32 235.90,55.69 263.88,43.53" fill="#e1e4d8"/><polygon points="236.38,56.04 263.88,43.67 263.88,43.53" fill="#b6b8af"/><polygon points="222.83,49.81 222.83,49.95 223.32,50.03" fill="#c9cbc1"/><polygon points="222.83,49.95 223.32,50.16 223.32,50.03" fill="#c9cbc1"/><polygon points="235.90,55.69 236.38,55.91 263.88,43.53" fill="#e1e4d8"/><polygon points="236.38,55.91 236.38,56.04 263.88,43.53" fill="#b6b8af"/><polygon points="223.18,49.65 222.49,49.96 236.72,55.74" fill="#e1e4d8"/><polygon points="222.49,49.96 222.49,50.09 236.03,56.05" fill="#c9cbc1"/><polygon points="276.46,49.19 248.96,61.57 276.94,49.41" fill="#e1e4d8"/><polygon points="249.44,61.92 276.94,49.54 276.94,49.41" fill="#b6b8af"/><polygon points="222.49,49.96 236.03,56.05 236.72,55.74" fill="#e1e4d8"/><polygon points="222.49,50.09 236.03,56.19 236.03,56.05" fill="#c9cbc1"/><polygon points="235.90,55.69 235.90,55.82 236.38,55.91" fill="#c9cbc1"/><polygon points="235.90,55.82 236.38,56.04 236.38,55.91" fill="#c9cbc1"/><polygon points="236.03,56.19 236.72,55.88 236.72,55.74" fill="#b6b8af"/><polygon points="236.03,56.05 236.03,56.19 236.72,55.74" fill="#b6b8af"/><polygon points="248.96,61.57 249.44,61.78 276.94,49.41" fill="#e1e4d8"/><polygon points="249.44,61.78 249.44,61.92 276.94,49.41" fill="#b6b8af"/><polygon points="289.52,55.07 262.02,67.45 290.00,55.29" fill="#e1e4d8"/><polygon points="262.50,67.80 290.00,55.42 290.00,55.29" fill="#b6b8af"/><polygon points="248.96,61.57 248.96,61.70 249.44,61.78" fill="#c9cbc1"/><polygon points="248.96,61.70 249.44,61.92 249.44,61.78" fill="#c9cbc1"/><polygon points="202.21,59.09 174.71,71.47 202.69,59.31" fill="#e1e4d8"/><polygon points="175.19,71.82 202.69,59.44 202.69,59.31" fill="#b6b8af"/><polygon points="262.02,67.45 262.50,67.66 290.00,55.29" fill="#e1e4d8"/><polygon points="262.50,67.66 262.50,67.80 290.00,55.29" fill="#b6b8af"/><polygon points="249.30,61.40 248.61,61.71 262.85,67.50" fill="#e1e4d8"/><polygon points="248.61,61.71 248.61,61.85 262.16,67.81" fill="#c9cbc1"/><polygon points="248.61,61.71 262.16,67.81 262.85,67.50" fill="#e1e4d8"/><polygon points="248.61,61.85 262.16,67.94 262.16,67.81" fill="#c9cbc1"/><polygon points="174.71,71.47 175.19,71.68 202.69,59.31" fill="#e1e4d8"/><polygon points="262.02,67.45 262.02,67.58 262.50,67.66" fill="#c9cbc1"/><polygon points="175.19,71.68 175.19,71.82 202.69,59.31" fill="#b6b8af"/><polygon points="262.02,67.58 262.50,67.80 262.50,67.66" fill="#c9cbc1"/><polygon points="262.16,67.94 262.85,67.63 262.85,67.50" fill="#b6b8af"/><polygon points="262.16,67.81 262.16,67.94 262.85,67.50" fill="#b6b8af"/><polygon points="215.27,64.97 187.77,77.34 215.75,65.19" fill="#e1e4d8"/><polygon points="188.25,77.70 215.75,65.32 215.75,65.19" fill="#b6b8af"/><polygon points="174.71,71.47 174.71,71.60 175.19,71.68" fill="#c9cbc1"/><polygon points="174.71,71.60 175.19,71.82 175.19,71.68" fill="#c9cbc1"/><polygon points="187.77,77.34 188.25,77.56 215.75,65.19" fill="#e1e4d8"/><polygon points="188.25,77.56 188.25,77.70 215.75,65.19" fill="#b6b8af"/><polygon points="175.06,71.30 174.37,71.61 188.60,77.40" fill="#e1e4d8"/><polygon points="174.37,71.61 174.37,71.75 187.91,77.71" fill="#c9cbc1"/><polygon points="228.33,70.85 200.84,83.22 228.82,71.06" fill="#e1e4d8"/><polygon points="201.32,83.57 228.82,71.20 228.82,71.06" fill="#b6b8af"/><polygon points="174.37,71.61 187.91,77.71 188.60,77.40" fill="#e1e4d8"/><polygon points="174.37,71.75 187.91,77.84 187.91,77.71" fill="#c9cbc1"/><polygon points="187.77,77.34 187.77,77.48 188.25,77.56" fill="#c9cbc1"/><polygon points="187.77,77.48 188.25,77.70 188.25,77.56" fill="#c9cbc1"/><polygon points="187.91,77.84 188.60,77.53 188.60,77.40" fill="#b6b8af"/><polygon points="187.91,77.71 187.91,77.84 188.60,77.40" fill="#b6b8af"/><polygon points="200.84,83.22 201.32,83.44 228.82,71.06" fill="#e1e4d8"/><polygon points="201.32,83.44 201.32,83.57 228.82,71.06" fill="#b6b8af"/><polygon points="241.40,76.73 213.90,89.10 241.88,76.94" fill="#e1e4d8"/><polygon points="214.38,89.45 241.88,77.08 241.88,76.94" fill="#b6b8af"/><polygon points="200.84,83.22 200.84,83.36 201.32,83.44" fill="#c9cbc1"/><polygon points="200.84,83.36 201.32,83.57 201.32,83.44" fill="#c9cbc1"/><polygon points="154.09,80.75 126.59,93.12 154.57,80.96" fill="#e1e4d8"/><polygon points="127.07,93.47 154.57,81.10 154.57,80.96" fill="#b6b8af"/><polygon points="213.90,89.10 214.38,89.32 241.88,76.94" fill="#e1e4d8"/><polygon points="214.38,89.32 214.38,89.45 241.88,76.94" fill="#b6b8af"/><polygon points="201.18,83.06 200.49,83.37 214.72,89.15" fill="#e1e4d8"/><polygon points="200.49,83.37 200.49,83.50 214.03,89.46" fill="#c9cbc1"/><polygon points="200.49,83.37 214.03,89.46 214.72,89.15" fill="#e1e4d8"/><polygon points="200.49,83.50 214.03,89.60 214.03,89.46" fill="#c9cbc1"/><polygon points="126.59,93.12 127.07,93.34 154.57,80.96" fill="#e1e4d8"/><polygon points="213.90,89.10 213.90,89.23 214.38,89.32" fill="#c9cbc1"/><polygon points="127.07,93.34 127.07,93.47 154.57,80.96" fill="#b6b8af"/><polygon points="213.90,89.23 214.38,89.45 214.38,89.32" fill="#c9cbc1"/><polygon points="214.03,89.60 214.72,89.29 214.72,89.15" fill="#b6b8af"/><polygon points="214.03,89.46 214.03,89.60 214.72,89.15" fill="#b6b8af"/><polygon points="167.15,86.63 139.65,99.00 167.63,86.84" fill="#e1e4d8"/><polygon points="140.13,99.35 167.63,86.98 167.63,86.84" fill="#b6b8af"/><polygon points="126.59,93.12 126.59,93.26 127.07,93.34" fill="#c9cbc1"/><polygon points="126.59,93.26 127.07,93.47 127.07,93.34" fill="#c9cbc1"/><polygon points="139.65,99.00 140.13,99.22 167.63,86.84" fill="#e1e4d8"/><polygon points="140.13,99.22 140.13,99.35 167.63,86.84" fill="#b6b8af"/><polygon points="126.93,92.96 126.25,93.27 140.48,99.05" fill="#e1e4d8"/><polygon points="126.25,93.27 126.25,93.40 139.79,99.36" fill="#c9cbc1"/><polygon points="180.21,92.50 152.71,104.88 180.69,92.72" fill="#e1e4d8"/><polygon points="153.19,105.23 180.69,92.85 180.69,92.72" fill="#b6b8af"/><polygon points="126.25,93.27 139.79,99.36 140.48,99.05" fill="#e1e4d8"/><polygon points="126.25,93.40 139.79,99.50 139.79,99.36" fill="#c9cbc1"/><polygon points="139.65,99.00 139.65,99.13 140.13,99.22" fill="#c9cbc1"/><polygon points="139.65,99.13 140.13,99.35 140.13,99.22" fill="#c9cbc1"/><polygon points="139.79,99.50 140.48,99.19 140.48,99.05" fill="#b6b8af"/><polygon points="139.79,99.36 139.79,99.50 140.48,99.05" fill="#b6b8af"/><polygon points="152.71,104.88 153.19,105.09 180.69,92.72" fill="#e1e4d8"/><polygon points="153.19,105.09 153.19,105.23 180.69,92.72" fill="#b6b8af"/><polygon points="193.27,98.38 165.77,110.76 193.75,98.60" fill="#e1e4d8"/><polygon points="166.26,111.11 193.75,98.73 193.75,98.60" fill="#b6b8af"/><polygon points="152.71,104.88 152.71,105.01 153.19,105.09" fill="#c9cbc1"/><polygon points="152.71,105.01 153.19,105.23 153.19,105.09" fill="#c9cbc1"/><polygon points="105.97,102.40 78.47,114.78 106.45,102.62" fill="#e1e4d8"/><polygon points="78.95,115.13 106.45,102.75 106.45,102.62" fill="#b6b8af"/><polygon points="165.77,110.76 166.26,110.97 193.75,98.60" fill="#e1e4d8"/><polygon points="166.26,110.97 166.26,111.11 193.75,98.60" fill="#b6b8af"/><polygon points="153.06,104.71 152.37,105.02 166.60,110.81" fill="#e1e4d8"/><polygon points="152.37,105.02 152.37,105.16 165.91,111.12" fill="#c9cbc1"/><polygon points="152.37,105.02 165.91,111.12 166.60,110.81" fill="#e1e4d8"/><polygon points="152.37,105.16 165.91,111.25 165.91,111.12" fill="#c9cbc1"/><polygon points="78.47,114.78 78.95,114.99 106.45,102.62" fill="#e1e4d8"/><polygon points="165.77,110.76 165.77,110.89 166.26,110.97" fill="#c9cbc1"/><polygon points="78.95,114.99 78.95,115.13 106.45,102.62" fill="#b6b8af"/><polygon points="165.77,110.89 166.26,111.11 166.26,110.97" fill="#c9cbc1"/><polygon points="165.91,111.25 166.60,110.94 166.60,110.81" fill="#b6b8af"/><polygon points="165.91,111.12 165.91,111.25 166.60,110.81" fill="#b6b8af"/><polygon points="119.03,108.28 91.53,120.66 119.51,108.50" fill="#e1e4d8"/><polygon points="92.01,121.01 119.51,108.63 119.51,108.50" fill="#b6b8af"/><polygon points="78.47,114.78 78.47,114.91 78.95,114.99" fill="#c9cbc1"/><polygon points="78.47,114.91 78.95,115.13 78.95,114.99" fill="#c9cbc1"/><polygon points="91.53,120.66 92.01,120.87 119.51,108.50" fill="#e1e4d8"/><polygon points="92.01,120.87 92.01,121.01 119.51,108.50" fill="#b6b8af"/><polygon points="78.81,114.61 78.12,114.92 92.35,120.71" fill="#e1e4d8"/><polygon points="78.12,114.92 78.12,115.06 91.67,121.02" fill="#c9cbc1"/><polygon points="132.09,114.16 104.59,126.53 132.57,114.38" fill="#e1e4d8"/><polygon points="105.07,126.88 132.57,114.51 132.57,114.38" fill="#b6b8af"/><polygon points="78.12,114.92 91.67,121.02 92.35,120.71" fill="#e1e4d8"/><polygon points="78.12,115.06 91.67,121.15 91.67,121.02" fill="#c9cbc1"/><polygon points="91.53,120.66 91.53,120.79 92.01,120.87" fill="#c9cbc1"/><polygon points="91.53,120.79 92.01,121.01 92.01,120.87" fill="#c9cbc1"/><polygon points="91.67,121.15 92.35,120.84 92.35,120.71" fill="#b6b8af"/><polygon points="91.67,121.02 91.67,121.15 92.35,120.71" fill="#b6b8af"/><polygon points="104.59,126.53 105.07,126.75 132.57,114.38" fill="#e1e4d8"/><polygon points="105.07,126.75 105.07,126.88 132.57,114.38" fill="#b6b8af"/><polygon points="145.15,120.04 117.65,132.41 145.63,120.25" fill="#e1e4d8"/><polygon points="118.13,132.76 145.63,120.39 145.63,120.25" fill="#b6b8af"/><polygon points="104.59,126.53 104.59,126.67 105.07,126.75" fill="#c9cbc1"/><polygon points="104.59,126.67 105.07,126.88 105.07,126.75" fill="#c9cbc1"/><polygon points="57.84,124.06 30.34,136.43 58.32,124.27" fill="#e1e4d8"/><polygon points="30.82,136.78 58.32,124.41 58.32,124.27" fill="#b6b8af"/><polygon points="117.65,132.41 118.13,132.63 145.63,120.25" fill="#e1e4d8"/><polygon points="118.13,132.63 118.13,132.76 145.63,120.25" fill="#b6b8af"/><polygon points="104.93,126.37 104.25,126.68 118.48,132.46" fill="#e1e4d8"/><polygon points="104.25,126.68 104.25,126.81 117.79,132.77" fill="#c9cbc1"/><polygon points="104.25,126.68 117.79,132.77 118.48,132.46" fill="#e1e4d8"/><polygon points="104.25,126.81 117.79,132.91 117.79,132.77" fill="#c9cbc1"/><polygon points="30.34,136.43 30.82,136.65 58.32,124.27" fill="#e1e4d8"/><polygon points="117.65,132.41 117.65,132.55 118.13,132.63" fill="#c9cbc1"/><polygon points="30.82,136.65 30.82,136.78 58.32,124.27" fill="#b6b8af"/><polygon points="117.65,132.55 118.13,132.76 118.13,132.63" fill="#c9cbc1"/><polygon points="117.79,132.91 118.48,132.60 118.48,132.46" fill="#b6b8af"/><polygon points="117.79,132.77 117.79,132.91 118.48,132.46" fill="#b6b8af"/><polygon points="70.90,129.94 43.41,142.31 71.39,130.15" fill="#e1e4d8"/><polygon points="43.89,142.66 71.39,130.29 71.39,130.15" fill="#b6b8af"/><polygon points="30.34,136.43 30.34,136.57 30.82,136.65" fill="#c9cbc1"/><polygon points="30.34,136.57 30.82,136.78 30.82,136.65" fill="#c9cbc1"/><polygon points="43.41,142.31 43.89,142.53 71.39,130.15" fill="#e1e4d8"/><polygon points="43.89,142.53 43.89,142.66 71.39,130.15" fill="#b6b8af"/><polygon points="30.69,136.27 30.00,136.58 44.23,142.36" fill="#e1e4d8"/><polygon points="30.00,136.58 30.00,136.71 43.54,142.67" fill="#c9cbc1"/><polygon points="83.97,135.81 56.47,148.19 84.45,136.03" fill="#e1e4d8"/><polygon points="56.95,148.54 84.45,136.16 84.45,136.03" fill="#b6b8af"/><polygon points="30.00,136.58 43.54,142.67 44.23,142.36" fill="#e1e4d8"/><polygon points="30.00,136.71 43.54,142.81 43.54,142.67" fill="#c9cbc1"/><polygon points="43.41,142.31 43.41,142.44 43.89,142.53" fill="#c9cbc1"/><polygon points="43.41,142.44 43.89,142.66 43.89,142.53" fill="#c9cbc1"/><polygon points="43.54,142.81 44.23,142.50 44.23,142.36" fill="#b6b8af"/><polygon points="43.54,142.67 43.54,142.81 44.23,142.36" fill="#b6b8af"/><polygon points="56.47,148.19 56.95,148.40 84.45,136.03" fill="#e1e4d8"/><polygon points="56.95,148.40 56.95,148.54 84.45,136.03" fill="#b6b8af"/><polygon points="97.03,141.69 69.53,154.07 97.51,141.91" fill="#e1e4d8"/><polygon points="70.01,154.42 97.51,142.04 97.51,141.91" fill="#b6b8af"/><polygon points="56.47,148.19 56.47,148.32 56.95,148.40" fill="#c9cbc1"/><polygon points="56.47,148.32 56.95,148.54 56.95,148.40" fill="#c9cbc1"/><polygon points="69.53,154.07 70.01,154.28 97.51,141.91" fill="#e1e4d8"/><polygon points="70.01,154.28 70.01,154.42 97.51,141.91" fill="#b6b8af"/><polygon points="56.81,148.02 56.12,148.33 70.35,154.12" fill="#e1e4d8"/><polygon points="56.12,148.33 56.12,148.47 69.67,154.43" fill="#c9cbc1"/><polygon points="56.12,148.33 69.67,154.43 70.35,154.12" fill="#e1e4d8"/><polygon points="56.12,148.47 69.67,154.56 69.67,154.43" fill="#c9cbc1"/><polygon points="69.53,154.07 69.53,154.20 70.01,154.28" fill="#c9cbc1"/><polygon points="69.53,154.20 70.01,154.42 70.01,154.28" fill="#c9cbc1"/><polygon points="69.67,154.56 70.35,154.25 70.35,154.12" fill="#b6b8af"/><polygon points="69.67,154.43 69.67,154.56 70.35,154.12" fill="#b6b8af"/></svg>
