<svg xmlns="http://www.w3.org/2000/svg" viewBox="0 0 320 192"><rect width="320" height="192" rx="12" fill="#182630"/><ellipse cx="160" cy="168" rx="105" ry="12" fill="#0e1921"/><polygon points="160.00,168.50 164.82,166.33 164.82,72.34" fill="#849094"/><polygon points="155.18,166.33 160.00,168.50 160.00,74.51" fill="#929fa3"/><polygon points="155.18,72.34 155.18,166.33 160.00,74.51" fill="#929fa3"/><polygon points="160.00,74.51 160.00,168.50 164.82,72.34" fill="#849094"/><polygon points="160.00,70.18 155.18,72.34 164.82,72.34" fill="#a4b2b7"/><polygon points="130.81,48.41 158.07,96.12 158.07,25.24" fill="#ca6f3d"/><polygon points="149.99,56.31 145.65,58.26 174.40,53.88" fill="#25363d"/><polygon points="155.18,72.34 160.00,74.51 164.82,72.34" fill="#a4b2b7"/><polygon points="145.65,58.26 147.53,64.88 170.06,55.83" fill="#1f2e34"/><polygon points="158.07,96.12 161.93,94.39 185.34,72.95" fill="#b76437"/><polygon points="145.65,58.26 170.06,55.83 174.40,53.88" fill="#25363d"/><polygon points="147.53,64.88 171.94,62.45 170.06,55.83" fill="#1f2e34"/><polygon points="158.07,96.12 185.34,72.95 158.07,25.24" fill="#ca6f3d"/><polygon points="161.93,94.39 189.19,71.21 185.34,72.95" fill="#b76437"/><polygon points="171.94,62.45 176.28,60.49 174.40,53.88" fill="#1b292f"/><polygon points="170.06,55.83 171.94,62.45 174.40,53.88" fill="#1b292f"/><polygon points="158.07,25.24 185.34,72.95 161.93,23.50" fill="#c86e3c"/><polygon points="185.34,72.95 189.19,71.21 161.93,23.50" fill="#c86e3c"/></svg>
